<svg width="26" height="26" viewBox="0 0 26 26" fill="none" xmlns="http://www.w3.org/2000/svg">
<g id="9054263_bx_cart_alt_icon 1">
<path id="Vector" d="M22.75 4.33361H2.16663V6.50027H4.65829L8.21163 16.2503C8.43513 16.8825 8.8487 17.43 9.39564 17.8179C9.94258 18.2058 10.5961 18.4151 11.2666 18.4169H20.5833V16.2503H11.2666C11.044 16.2502 10.8268 16.1815 10.6446 16.0536C10.4624 15.9256 10.324 15.7446 10.2483 15.5353L9.74996 14.0836H19.8033C20.2735 14.0829 20.7307 13.9293 21.1059 13.6459C21.4811 13.3626 21.754 12.9648 21.8833 12.5128L23.8333 5.70944C23.8773 5.56718 23.8916 5.41737 23.8751 5.26936C23.8586 5.12135 23.8118 4.97833 23.7376 4.84922C23.6634 4.72011 23.5634 4.60769 23.4438 4.51897C23.3242 4.43026 23.1875 4.36715 23.0425 4.33361C22.9456 4.31783 22.8468 4.31783 22.75 4.33361ZM19.7708 11.9169H8.93746L6.96579 6.50027H21.3091L19.7708 11.9169Z" fill="#5E6775"/>
<path id="Vector_2" d="M11.375 22.7502C12.2725 22.7502 13 22.0227 13 21.1252C13 20.2278 12.2725 19.5002 11.375 19.5002C10.4775 19.5002 9.75 20.2278 9.75 21.1252C9.75 22.0227 10.4775 22.7502 11.375 22.7502Z" fill="#5E6775"/>
<path id="Vector_3" d="M17.875 22.7502C18.7725 22.7502 19.5 22.0227 19.5 21.1252C19.5 20.2278 18.7725 19.5002 17.875 19.5002C16.9775 19.5002 16.25 20.2278 16.25 21.1252C16.25 22.0227 16.9775 22.7502 17.875 22.7502Z" fill="#5E6775"/>
</g>
</svg>
